<?xml version="1.0" encoding="UTF-8" standalone="no"?>
<!-- Created with Inkscape (http://www.inkscape.org/) -->

<svg
   version="1.1"
   id="svg198"
   width="817.18829"
   height="1049.0658"
   viewBox="0 0 817.18829 1049.0658"
   sodipodi:docname="zu4.svg"
   inkscape:version="1.2.2 (732a01da63, 2022-12-09, custom)"
   xmlns:inkscape="http://www.inkscape.org/namespaces/inkscape"
   xmlns:sodipodi="http://sodipodi.sourceforge.net/DTD/sodipodi-0.dtd"
   xmlns="http://www.w3.org/2000/svg"
   xmlns:svg="http://www.w3.org/2000/svg">
  <defs
     id="defs202" />
  <sodipodi:namedview
     id="namedview200"
     pagecolor="#ffffff"
     bordercolor="#000000"
     borderopacity="0.25"
     inkscape:showpageshadow="2"
     inkscape:pageopacity="0.0"
     inkscape:pagecheckerboard="0"
     inkscape:deskcolor="#d1d1d1"
     showgrid="false"
     inkscape:zoom="0.42426407"
     inkscape:cx="603.39779"
     inkscape:cy="243.95184"
     inkscape:window-width="1850"
     inkscape:window-height="1016"
     inkscape:window-x="0"
     inkscape:window-y="0"
     inkscape:window-maximized="1"
     inkscape:current-layer="layer2" />
  <g
     inkscape:groupmode="layer"
     id="layer2"
     inkscape:label="Layer 2">
    <path
       id="path316"
       style="fill:#000000;stroke-width:1.33333"
       d="M 370.281 48.231626 C 369.46585 48.380469 368.73086 48.706113 367.97241 49.186704 C 365.04341 51.042592 367.28653 55.318882 377.72045 67.766782 C 388.62605 80.777425 400.74697 98.740244 402.00561 103.75506 C 403.99331 111.67474 397.15816 113.82967 384.58569 109.2492 C 374.44128 105.55337 363.8659 99.16159 348.59545 87.495298 C 334.67907 76.863471 331.00841 74.906572 328.91186 77.00311 C 325.38957 80.525401 332.70371 96.32145 344.17358 109.96405 C 353.30157 120.82115 377.5631 130.33011 445.781 149.78631 C 487.97361 161.81993 492.4945 163.6354 511.36889 176.12616 C 519.57517 181.55692 531.29861 188.87579 537.42162 192.38983 C 543.54466 195.90388 551.23107 201.20353 554.5017 204.16717 C 557.77235 207.13082 558.71687 208.30621 556.60131 206.7785 C 548.4944 200.92431 546.80239 203.96582 544.9978 227.63983 C 542.55579 259.67574 533.97972 275.67505 516.54858 280.71014 C 511.18709 282.25883 506.28419 282.7468 501.29272 282.23163 C 488.82369 280.94471 483.75825 275.27598 477.02709 255.07147 C 469.11713 231.32857 458.90613 214.40827 448.75951 208.23358 C 445.73413 206.39247 440.70118 205.32124 431.8767 204.64374 L 419.30248 203.67889 L 423.54467 208.83905 C 441.2755 230.40787 445.12132 235.5421 448.39819 242.01874 C 453.12752 251.36611 454.12938 259.50155 451.23998 265.08905 C 445.12897 276.90644 421.60838 277.68544 400.01342 266.78436 C 388.72476 261.08587 385.04078 257.51822 375.42553 242.97577 C 360.76064 220.79606 345.21419 206.02041 337.47826 206.90936 C 331.46336 207.60054 332.26664 211.62953 340.61889 222.66717 C 350.8318 236.1637 355.26148 243.60115 357.00951 250.19061 C 358.65387 256.38918 357.9319 259.56059 354.64233 260.60467 C 351.58852 261.57391 328.65783 255.34079 320.21069 251.2453 C 310.82728 246.69584 300.70388 235.37596 289.04662 216.39959 C 264.6912 176.75245 256.98239 167.43627 244.83373 162.97186 C 235.48928 159.53794 230.06399 158.58887 227.79467 159.99139 C 224.94925 161.74996 227.38964 165.73119 239.52319 179.1203 C 256.12007 197.4346 265.20429 218.38647 259.16576 224.42499 C 256.45835 227.1324 249.57966 227.29246 240.44116 224.85858 C 225.88515 220.98186 214.85887 214.38219 194.78491 197.53827 C 183.23741 187.84884 180.49158 186.26122 177.13256 187.32733 C 170.10213 189.55872 174.8503 201.38861 188.64428 216.01092 C 203.17462 231.41384 220.14868 241.39496 247.1892 250.43475 C 255.94786 253.36283 270.61436 259.03406 279.781 263.03827 C 319.83576 280.53508 341.56051 285.83593 420.32397 297.32342 C 445.32585 300.96991 473.8506 305.80745 483.71264 308.07538 C 494.96937 310.66401 508.12182 312.62754 519.04662 313.34881 C 528.61786 313.98073 540.04897 315.45198 544.44897 316.61834 C 560.0512 320.75433 581.33335 328.31263 580.23217 329.32733 C 578.48794 330.93456 555.36972 334.77966 542.39428 335.6203 L 530.67162 336.38006 L 538.22631 341.94256 C 542.38159 345.00228 549.25669 351.36808 553.50366 356.08709 C 565.32386 369.22118 576.76952 378.48172 587.781 383.81952 L 597.781 388.66717 L 625.63842 388.22577 L 653.49389 387.78436 L 652.66381 393.55975 C 648.49842 422.49001 648.45417 438.52707 652.48217 459.76092 C 656.20777 479.40062 657.00288 489.60553 655.64819 500.42499 C 654.00695 513.53304 650.22103 523.77496 645.26147 528.52655 C 638.59369 534.91466 633.48816 535.83676 609.11498 535.0617 C 581.93838 534.19748 563.74497 536.37457 529.11498 544.63006 C 495.49972 552.64368 492.85973 552.98151 445.781 555.33905 C 423.04773 556.47746 395.74829 558.28597 385.11498 559.35663 C 374.48168 560.42725 349.54976 562.18139 329.71069 563.25506 C 273.34591 566.30545 253.94464 570.07598 227.11498 583.19256 C 215.65241 588.79645 210.55433 590.53693 203.781 591.16131 C 197.83451 591.70945 192.39543 593.32921 186.44897 596.32342 C 174.94242 602.11733 170.34589 608.89231 166.51733 625.69842 C 164.96312 632.52089 162.80435 639.81237 161.72045 641.90155 C 159.94019 645.33299 159.98273 646.09956 162.16381 649.84881 C 164.95089 654.6398 170.3187 655.9426 174.86694 652.93084 C 176.46951 651.86964 180.481 646.44334 183.781 640.87225 C 187.081 635.30117 190.0823 630.72893 190.44897 630.71209 C 190.81563 630.69529 191.29772 649.1926 191.52123 671.81756 C 191.97187 717.43489 191.22222 723.92564 183.8103 738.60858 C 178.50127 749.12568 173.78467 754.28538 162.13451 762.31952 C 152.90194 768.68643 133.78488 778.82765 123.781 782.66522 C 121.21433 783.64982 115.44104 786.59027 110.95092 789.20038 L 102.78686 793.94647 L 101.90014 807.30584 C 97.205854 878.0513 93.998429 897.61237 78.827874 947.9992 C 70.675288 975.07683 70.138379 977.70127 69.126702 995.33319 C 68.537645 1005.5999 66.769722 1019.6506 65.198968 1026.5558 C 61.886027 1041.1204 61.967329 1041.2723 73.114983 1041.3332 C 77.148311 1041.3552 81.947675 1042.1437 83.780999 1043.0871 C 86.79528 1044.6381 87.073937 1045.4711 86.68139 1051.7902 C 86.2729 1058.366 86.550057 1059.0827 91.384515 1063.9172 C 97.624124 1070.1569 107.21917 1073.3332 119.82397 1073.3332 C 133.87778 1073.3332 139.781 1070.2193 139.781 1062.8058 C 139.781 1061.3193 135.55605 1052.7294 130.39037 1043.718 C 117.85409 1021.8478 115.20791 1012.9995 116.18725 996.19647 C 117.46029 974.35423 122.1809 935.65641 125.67358 918.42303 C 133.14311 881.567 139.96321 864.67524 153.21069 850.21795 C 167.3275 834.81193 169.68518 834.04578 217.33569 829.36249 C 249.24291 826.2265 263.51027 823.74959 275.34741 819.29413 C 286.55212 815.07666 301.03641 805.57718 311.32006 795.70233 L 319.656 787.69842 L 320.54272 791.23553 C 321.82739 796.35403 318.76507 818.35401 314.92358 831.60467 C 309.8209 849.20553 304.56078 861.38973 297.19116 872.67889 C 293.48211 878.36059 290.44897 883.54589 290.44897 884.20233 C 290.44897 884.85877 297.5635 893.6323 306.25951 903.69842 C 388.9833 999.45578 399.74234 1014.1472 405.04662 1038.5988 C 406.54981 1045.5281 408.4275 1051.8281 409.22045 1052.5988 C 410.23904 1053.5887 412.59753 1051.9074 417.25561 1046.8703 C 421.11213 1042.6999 424.60766 1040.0308 425.67553 1040.4406 C 426.67962 1040.8259 429.7714 1047.0027 432.54662 1054.1652 C 440.48444 1074.6516 449.26059 1082.063 467.34545 1083.5558 C 483.43647 1084.884 494.44897 1079.6065 494.44897 1070.5676 C 494.44897 1063.1681 485.78351 1051.0246 467.88061 1033.3332 C 449.11134 1014.7856 409.48854 973.01667 398.94897 960.66717 C 388.58152 948.51933 377.33987 932.35852 372.28491 922.33319 C 364.65139 907.19397 361.65593 890.5496 365.30834 883.57928 C 366.14767 881.97749 373.19706 874.05435 380.97436 865.97186 C 388.75167 857.88938 398.49931 847.38867 402.63647 842.63788 C 415.3062 828.08887 433.09827 796.59386 439.90405 776.66717 C 441.65726 771.53387 443.19073 767.14099 443.3103 766.90545 C 443.4299 766.66991 454.53471 768.89272 467.98803 771.84491 C 513.82861 781.9041 547.99745 785.29132 577.781 782.72772 C 587.3143 781.90715 596.12381 780.929 597.35717 780.55584 C 599.16989 780.00743 599.76232 781.1038 600.45092 786.27264 C 603.72279 810.83215 609.65805 835.25288 621.14233 871.41913 C 632.68723 907.77632 634.58464 924.02654 637.94311 1015.3332 C 638.6088 1033.4313 638.36719 1039.5386 636.7478 1045.632 L 634.72045 1053.2629 L 641.00366 1047.964 C 648.15944 1041.9304 650.44555 1041.3758 650.45678 1045.6672 C 650.46878 1050.5092 658.04057 1077.053 660.73998 1081.718 C 664.0836 1087.4959 674.24939 1094.1163 682.49194 1095.884 C 690.30182 1097.559 704.56367 1097.6636 708.44897 1096.0734 C 713.50788 1094.0028 716.35439 1089.4798 716.13061 1083.8683 C 715.89245 1077.8964 711.33038 1069.2265 700.43334 1054.0383 C 695.87 1047.6779 691.73991 1039.7859 689.08569 1032.3527 C 686.79065 1025.9255 683.51009 1016.7099 681.79467 1011.8742 C 676.77065 997.7114 671.99431 974.02227 670.26147 954.66717 C 668.75439 937.83376 668.88491 934.50619 672.28295 903.33319 C 676.38952 865.66055 681.45042 838.28685 688.4392 815.9367 C 691.06528 807.53855 694.36664 793.54109 695.77514 784.83319 C 697.18363 776.12527 698.6454 768.69144 699.02514 768.3117 C 699.40488 767.93196 701.38124 767.67469 703.41576 767.74139 C 705.45031 767.80809 727.81507 768.44955 753.11498 769.16522 C 812.67695 770.85007 824.74318 772.7887 828.01537 781.20428 C 832.57511 792.93115 817.07898 847.33169 803.12866 868.57147 C 799.82085 873.60766 797.11498 878.19652 797.11498 878.76874 C 797.11498 881.92162 801.53648 883.96434 806.60717 883.1535 L 811.90795 882.30584 L 808.32787 890.1535 C 798.30913 912.11608 797.84482 913.63744 797.81225 924.66717 C 797.78455 934.04541 798.26415 936.21201 801.781 942.61249 C 810.62712 958.71198 829.68989 974.21461 839.26733 973.09881 C 847.59204 972.12897 850.93747 956.30577 849.60912 924.19452 C 848.85834 906.0453 849.04423 903.74814 852.22631 891.64764 C 855.48829 879.24332 856.618 872.49496 859.75561 846.66717 C 860.51284 840.43387 864.2255 821.83313 868.00561 805.33319 C 874.04474 778.97254 874.89168 773.46132 874.99584 759.9035 C 875.10855 745.23254 874.94435 744.24931 871.63061 739.89764 C 867.16995 734.03983 858.69606 729.84058 844.8142 726.61053 C 813.21622 719.25826 789.38125 713.3782 786.09545 712.1242 C 782.64344 710.80678 782.46325 710.35469 783.27709 705.02459 C 783.7551 701.89394 786.16438 692.83488 788.63061 684.89178 C 791.09684 676.94867 793.11498 669.60395 793.11498 668.57147 C 793.11498 667.53899 794.91008 660.30407 797.10326 652.49334 C 808.09395 613.35199 807.99956 595.13839 796.52709 540.66717 C 794.05591 528.93387 791.65608 516.59337 791.19506 513.24334 C 789.99014 504.48762 783.84253 492.52474 775.96069 483.59881 C 772.2042 479.34473 768.74196 474.31018 768.26537 472.41131 C 767.06093 467.61238 769.22292 462.30236 773.14623 460.42499 C 774.96251 459.55586 791.74903 457.5509 810.44897 455.96795 C 829.22135 454.37891 846.95246 452.21249 850.04076 451.13006 C 854.05183 449.72422 858.84919 445.7904 866.99584 437.22967 C 879.42362 424.17022 881.86209 419.06562 879.86108 410.29608 C 877.74574 401.02546 876.94146 400.5611 846.85522 391.25116 C 825.62368 384.68121 805.18905 375.69259 799.73022 370.52264 C 797.86894 368.75986 793.89693 364.00043 790.90209 359.94647 C 778.07165 342.57853 772.04046 340.17926 738.44897 339.07928 C 725.61566 338.65904 714.43741 337.7813 713.60912 337.12811 C 712.78084 336.47493 711.77257 334.30411 711.36889 332.30389 C 710.9652 330.30367 710.22865 327.61653 709.73217 326.33319 C 708.91217 324.21361 709.96473 323.9992 721.22045 323.9992 C 736.39884 323.9992 747.70517 321.37268 762.13256 314.49334 C 782.07517 304.98425 798.47923 283.9992 785.97045 283.9992 C 784.19538 283.9992 777.04364 286.9912 770.07592 290.64764 C 763.10821 294.30412 753.59101 298.19477 748.92748 299.29413 C 740.14755 301.36385 720.73244 301.96026 710.0017 300.48944 C 704.31133 299.7095 703.62818 299.192 700.91772 293.59295 C 697.1265 285.76137 685.14528 273.83173 674.69506 267.48358 C 670.15982 264.72855 666.44897 262.34626 666.44897 262.19061 C 666.44897 262.03496 667.64832 258.49242 669.11498 254.31952 C 673.66025 241.38744 671.96276 217.84157 666.22436 214.22186 C 663.68124 212.6177 660.2859 214.77924 658.27123 219.28631 C 656.90022 222.35347 656.96301 221.86662 660.55248 201.9992 C 663.8346 183.83306 662.76273 168.34378 657.46069 157.33319 C 652.82843 147.71355 644.61941 137.33319 641.64428 137.33319 C 638.00765 137.33319 636.88209 143.80356 638.52709 155.25702 C 640.92719 171.96783 641.50815 191.01691 639.85912 198.96014 C 636.36934 215.77044 625.62996 230.66717 617.0017 230.66717 C 608.93756 230.66717 602.66238 225.35541 591.76733 209.3117 C 584.52369 198.64501 581.54826 189.64776 578.32983 168.66717 C 574.09429 141.05628 570.76487 131.57824 559.12084 113.9992 C 547.02355 95.735871 530.44897 82.271693 530.44897 90.708188 C 530.44897 95.611393 535.60554 108.85091 542.97631 122.8703 C 553.28358 142.47492 556.71721 155.9351 553.12475 162.64764 C 552.39705 164.00736 549.73536 165.80207 547.20873 166.63592 C 534.37569 170.87123 519.18724 160.08524 508.76147 139.33319 C 506.91935 135.66652 503.23628 125.69758 500.57787 117.17889 C 495.3153 100.31526 488.94376 89.033456 480.28881 81.257016 C 468.42337 70.595982 452.432 61.857338 447.59741 63.391782 C 442.73728 64.934326 444.88328 69.897936 455.50756 81.694516 C 472.28802 100.32655 479.9857 116.05557 477.86303 127.3703 C 476.83369 132.85719 476.43289 132.9039 462.11889 129.2492 C 440.36922 123.69603 433.25141 117.65941 421.0603 94.432798 C 413.89789 80.786959 410.65281 76.215437 401.781 67.262876 C 394.51351 59.929225 388.39093 55.144561 382.56811 52.249204 C 375.89152 48.929326 372.72643 47.785097 370.281 48.231626 z M 562.36889 211.62811 C 563.45516 211.86514 569.97338 219.13035 584.48022 235.9992 C 594.88594 248.09918 607.7617 262.66846 613.0935 268.3742 C 622.69765 278.65192 622.76511 278.77444 620.28686 281.51288 C 610.20924 292.64851 583.84577 299.40518 571.15991 294.10467 C 561.91272 290.24097 559.6495 276.88785 564.47631 254.66717 C 565.83032 248.43386 566.97874 238.23254 567.02709 231.9992 C 567.10139 222.43222 566.63082 219.84817 564.01342 215.41913 C 562.50337 212.86388 561.87513 211.52037 562.36889 211.62811 z M 656.93725 223.26678 C 656.98419 223.27612 657.01316 223.34182 657.02123 223.46795 C 657.15176 225.50778 654.2571 233.58661 653.6228 232.95233 C 653.33802 232.66753 653.96414 230.08531 655.01537 227.216 C 655.90236 224.79503 656.68379 223.21634 656.93725 223.26678 z M 639.11498 298.07733 L 640.71459 308.57147 C 641.5948 314.34313 642.62746 319.87586 643.00756 320.86639 C 643.9302 323.27075 643.13932 323.1746 632.54467 319.60077 L 623.45678 316.53436 L 631.28491 307.30584 L 639.11498 298.07733 z "
       transform="translate(-63.296624,-48.139829)" />
    <g
       id="layer1"
       inkscape:label="Hooves"
       transform="translate(-63.296624,-48.139829)">
      <path
         style="fill:#502d16;stroke-width:1.33333"
         d="m 830.94523,965.25117 c -7.07586,-3.42536 -20.07211,-17.20709 -24.49701,-25.9776 -3.9953,-7.919 -4.44954,-21.00874 -1.00287,-28.89969 l 2.16623,-4.95943 9.15721,3.77614 c 5.03647,2.07688 13.0964,4.19798 17.91094,4.71358 l 8.75372,0.93744 0.65465,13.57918 c 0.69882,14.49549 -0.81062,32.87166 -3.04271,37.04235 -1.71799,3.21011 -3.0906,3.18131 -10.10016,-0.21197 z"
         id="path373" />
      <path
         style="fill:#502d16;stroke-width:1.33333"
         d="m 106.63514,1065.932 c -3.83007,-1.1374 -8.765638,-3.6874 -10.967938,-5.6667 -3.61998,-3.2534 -3.90254,-4.0819 -2.94492,-8.6348 0.99647,-4.7376 1.69162,-5.3174 11.725938,-9.7811 15.43653,-6.8669 14.77597,-6.8305 17.78212,-0.9804 1.45013,2.822 4.79238,8.6957 7.42724,13.0525 2.63485,4.3569 4.79064,8.7262 4.79064,9.7097 0,4.443 -16.11132,5.7758 -27.81308,2.3008 z"
         id="path363" />
      <path
         style="fill:#502d16;stroke-width:1.33333"
         d="m 454.8369,1074.8441 c -7.09764,-3.6502 -11.74015,-9.0134 -14.9986,-17.3267 -2.15455,-5.497 -2.44719,-7.577 -1.2662,-9 0.84478,-1.0179 2.00486,-1.8508 2.57796,-1.8508 0.57309,0 4.75726,-2.1 9.29816,-4.6666 4.54089,-2.5667 9.42424,-4.6667 10.85188,-4.6667 5.98877,0 27.81478,26.1303 27.81478,33.3001 0,7.4789 -22.53948,10.2476 -34.27798,4.2107 z"
         id="path361" />
      <path
         style="fill:#502d16;stroke-width:1.33333"
         d="m 677.79816,1088.161 c -3.65753,-1.6269 -7.98793,-4.2148 -9.62312,-5.751 -3.07589,-2.8896 -6.66001,-12.1613 -7.33836,-18.9834 l -0.38846,-3.9068 13.60781,-2.928 c 7.48429,-1.6104 14.50705,-3.2731 15.60616,-3.6949 2.36188,-0.9063 7.22847,4.9502 15.25007,18.3522 6.28957,10.5083 6.97158,15.558 2.53596,18.7765 -4.29576,3.1169 -20.78111,2.0802 -29.65006,-1.8646 z"
         id="path359" />
    </g>
    <g
       id="layer3"
       inkscape:label="Body"
       style="fill:#d45500">
      <path
         style="fill:#d45500;stroke-width:1.33333"
         d="m 656.44936,1048.3333 c -1.53918,-11.7601 -3.86425,-14.2844 -10.0888,-10.9531 -2.45294,1.3128 -2.57958,0.8403 -2.59074,-9.6667 -0.0239,-22.4611 -4.02399,-95.52722 -6.02827,-110.11179 -2.25801,-16.43082 -5.05567,-27.7824 -14.36057,-58.2684 -10.8373,-35.50663 -14.13879,-50.10011 -18.24926,-80.66667 -7.51469,-55.88122 -8.02948,-58.66666 -10.84237,-58.66666 -3.20979,0 -3.20017,0.32612 0.82553,28 1.83334,12.60285 3.33334,23.71089 3.33334,24.68453 0,2.3632 -4.18586,3.15253 -24.23546,4.57005 -30.83194,2.17986 -63.26421,-1.38189 -110.43121,-12.12768 -72.77049,-16.57889 -83.91911,-18.40078 -112.81347,-18.43581 l -20.14678,-0.0244 -0.75252,7.29111 c -1.91822,18.58581 -24.40708,44.41267 -49.75164,57.13621 -12.46022,6.25532 -30.27599,9.77926 -65.20226,12.89696 -24.28293,2.16763 -43.15848,5.13431 -48.35424,7.59985 -7.29317,3.46084 -20.1512,16.13031 -27.01632,26.62014 -10.60774,16.20854 -20.16808,52.17366 -24.57682,92.45573 C 114.00372,961.3 112.17095,977.2 111.09467,986 c -2.35461,19.2522 -1.27023,28.2634 5.22647,43.4317 0.69674,1.6268 -1.43572,3.181 -9.48708,6.9147 -13.010998,6.0336 -13.557108,6.1241 -18.215338,3.0193 -2.29933,-1.5326 -7.00192,-2.7819 -11.76912,-3.1268 -7.29858,-0.5279 -7.88417,-0.8029 -7.25268,-3.4066 2.59844,-10.7134 4.89442,-27.5852 5.37515,-39.49897 0.41877,-10.37812 1.58783,-17.44941 4.51887,-27.33333 13.41018,-45.22136 16.3978,-56.72736 19.49621,-75.08453 1.895428,-11.22983 4.790428,-36.93708 6.433328,-57.12723 l 2.9871,-36.70937 6.02032,-3.53014 c 3.31117,-1.94158 10.6404,-5.42211 16.28717,-7.73452 13.05993,-5.34818 31.50709,-15.95499 41.49156,-23.85698 9.00192,-7.12438 16.97327,-18.85888 21.25595,-31.29056 2.8637,-8.31273 2.98854,-10.57248 3.05686,-55.33333 0.0612,-40.10664 0.38711,-47.60381 2.31822,-53.33333 2.1093,-6.25821 2.10864,-6.76959 -0.0107,-8.34645 -2.83656,-2.11052 -4.72108,0.0984 -17.18595,20.1448 -4.9469,7.95576 -9.84957,14.7932 -10.89482,15.19429 -2.34898,0.90139 -4.55678,-2.28596 -3.45831,-4.99264 0.44643,-1.1 2.27473,-7.64173 4.06289,-14.53717 3.96751,-15.2993 7.0864,-21.65731 12.52288,-25.52841 5.52107,-3.93136 18.70256,-7.93442 26.12688,-7.93442 4.5795,0 8.06739,-1.23674 14.88122,-5.27661 15.66916,-9.29012 36.46577,-15.73899 60.2331,-18.67783 6.23334,-0.77076 27.83334,-2.2986 48,-3.39521 20.1667,-1.09664 41.4667,-2.56908 47.33337,-3.27212 12.36092,-1.48127 41.05849,-3.37239 82.66666,-5.44759 30.75384,-1.53384 37.89352,-2.59116 67.45339,-9.98915 30.98015,-7.75344 41.41636,-9.03493 75.21328,-9.23568 28.36677,-0.16848 31.06665,-0.39204 36,-2.9809 10.43268,-5.47472 15.58401,-14.26151 18.64223,-31.79856 2.66472,-15.28067 2.61625,-16.58568 -1.50976,-40.6484 -3.9229,-22.87813 -4.64694,-46.93336 -1.90148,-63.17431 2.26604,-13.40489 1.9121,-13.1675 13.12564,-8.80364 8.96854,3.49023 9.78185,3.59926 10.92437,1.46442 1.01561,-1.89768 0.19925,-2.80947 -4.60537,-5.14374 -12.59714,-6.12015 -20.68924,-7.21014 -49.98811,-6.73323 l -27.39229,0.44586 -8.64762,-4.26612 c -9.93948,-4.90344 -19.44508,-12.73176 -33.20474,-27.34568 -8.92446,-9.4785 -9.43503,-10.32364 -6.56026,-10.85878 56.67866,-10.5511 64.86151,-11.44058 76.89272,-8.35832 14.5966,3.73948 25.96615,12.0048 38.8971,28.27702 6.14536,7.7333 8.01404,9.31347 9.81924,8.30323 2.07418,-1.16077 2.06505,-1.52935 -0.13107,-5.29141 l -2.3606,-4.04375 4.66667,-3.91703 c 6.29674,-5.28525 13.97232,-8.8503 22.56192,-10.47929 8.69705,-1.64936 36.39856,-1.70425 52.92042,-0.10493 17.63188,1.70684 22.65875,4.75309 34.8911,21.14384 10.10654,13.54228 23.46371,20.48247 60.95989,31.6739 6.6,1.96988 12.24632,3.8072 12.54738,4.08292 0.30106,0.27573 -0.44894,1.60224 -1.66666,2.94781 -1.21773,1.34564 -2.21405,3.67604 -2.21405,5.17875 0,4.43367 3.6832,11.94843 7.21973,14.73027 l 3.28688,2.58546 -6.44278,6.34591 -6.44279,6.34591 -18.13058,-0.20547 c -16.59447,-0.18805 -39.48309,-2.62349 -45.1718,-4.80645 -1.8113,-0.69507 -2.31866,-0.1796 -2.31866,2.35576 0,2.94342 0.8377,3.40996 9,5.01225 4.95,0.97171 18,2.14409 29,2.60531 24.21218,1.01517 21.53643,1.69929 -21.13054,5.40244 -17.65438,1.53226 -33.76865,3.58348 -36.22962,4.61173 -6.55763,2.73995 -9.10474,7.43411 -8.34186,15.37353 0.44687,4.65059 1.77087,7.99164 4.5009,11.35778 15.40249,18.99135 16.2864,20.78075 19.76385,40.01007 1.06093,5.86667 4.11868,20.86667 6.79499,33.33334 8.2363,38.366 7.75298,61.27726 -2.01102,95.33051 -2.20736,7.69846 -4.01337,14.98423 -4.01337,16.19062 0,1.20637 -2.02768,9.00764 -4.50596,17.33613 -2.47829,8.32851 -5.19585,18.06701 -6.03904,21.64115 -6.24147,26.45649 -26.80492,43.87346 -62.38484,52.8391 -16.69259,4.20631 -15.26007,6.32737 -14.23144,-21.07193 0.98032,-26.11277 0.24843,-34.01097 -3.09031,-33.34872 -1.79982,0.35701 -2.15476,3.84273 -2.48621,24.41646 -0.48009,29.80015 -4.5154,61.9783 -9.86779,78.68735 -9.31286,29.07286 -13.93785,53.13086 -18.68108,97.17405 -3.04629,28.28649 -3.33389,40.40216 -1.3492,56.84024 3.20652,26.5579 6.30594,38.4259 19.82096,75.89652 2.23467,6.1956 3.81422,11.5136 3.51012,11.8177 -0.80394,0.804 -23.39185,5.244 -27.61352,5.4279 -3.30192,0.1439 -3.65041,-0.3438 -4.41388,-6.1771 z"
         id="path365"
         transform="translate(-63.296624,-48.139829)" />
      <path
         style="fill:#d45500;stroke-width:1.33333"
         d="m 823.78155,907.43635 c -3.3,-1.02744 -7.90777,-2.84383 -10.23949,-4.0364 l -4.23948,-2.16832 4.00105,-8.55008 c 2.30227,-4.91983 3.81924,-10.13482 3.57283,-12.2825 -0.39954,-3.48224 -0.80805,-3.71549 -6.09491,-3.47997 -3.11667,0.13884 -5.66667,-0.1172 -5.66667,-0.56909 0,-0.45184 2.08391,-3.86543 4.63091,-7.58578 9.19392,-13.42933 22.72676,-55.92438 24.25119,-76.15218 1.81246,-24.04988 -5.85648,-27.07288 -72.17206,-28.44936 l -39.95662,-0.82936 11.53433,-4.37539 c 20.13956,-7.63965 35.63271,-20.26397 43.09381,-35.11422 1.98326,-3.94739 3.70752,-7.30086 3.83172,-7.45215 0.12414,-0.15131 5.00202,1.20368 10.8396,3.01108 5.83759,1.8074 21.64188,5.67296 35.12065,8.59013 27.94944,6.04902 37.45703,9.76786 41.54681,16.25076 4.26246,6.75663 2.9179,23.48476 -4.48155,55.75646 -6.42038,28.00161 -9.551,45.50505 -10.96993,61.33333 -0.49306,5.5 -2.58965,16.9 -4.65911,25.33333 -2.06945,8.43333 -3.95639,16.50703 -4.1932,17.94153 -0.74623,4.52055 -10.03985,5.85139 -19.74988,2.82818 z"
         id="path375"
         transform="translate(-63.296624,-48.139829)" />
      <path
         style="fill:#d45500;stroke-width:1.33333"
         d="m 434.44822,1043.4356 c 0,-2.9762 -6.63242,-10.1023 -9.40236,-10.1023 -1.37426,0 -4.8878,2.4864 -7.80788,5.5253 -5.17744,5.3882 -5.32572,5.4461 -5.97312,2.3334 -2.8781,-13.8384 -4.39783,-18.144 -9.74751,-27.6161 -10.98716,-19.45369 -24.94657,-36.91244 -89.45897,-111.88445 l -15.18058,-17.64184 6.82115,-11.12301 c 13.13933,-21.42584 21.68252,-51.11352 22.13711,-76.92662 0.26737,-15.18244 0.60045,-17.2052 3.74029,-22.71396 1.89573,-3.32603 4.28456,-9.32603 5.30851,-13.33334 l 1.86172,-7.28604 13.18414,-0.4103 c 7.2513,-0.22567 19.18416,0.2674 26.5175,1.0957 15.12153,1.70799 58.07224,10.30786 59.8136,11.97626 2.7569,2.6414 -10.76672,33.31869 -23.78818,53.96158 -8.41937,13.34723 -16.0147,22.42719 -37.01014,44.24436 -7.87494,8.18315 -14.92494,16.47464 -15.66667,18.42556 -2.5552,6.72065 -1.53272,19.4088 2.49695,30.9852 7.37762,21.19436 23.33609,42.90149 59.15305,80.46152 13.38409,14.03548 27.15528,28.67048 30.60261,32.52238 l 6.26791,7.0034 -10.93457,6.1065 c -12.24138,6.8364 -12.93456,7.0721 -12.93456,4.3968 z"
         id="path371"
         transform="translate(-63.296624,-48.139829)" />
      <path
         style="fill:#d45500;stroke-width:1.33333"
         d="m 662.44822,330.90144 c -14.02078,-6.9013 -13.95958,-6.80938 -16.5778,-24.90145 l -0.96479,-6.66667 6.89533,6.66667 c 3.79244,3.66667 9.27563,10.13691 12.18486,14.37831 2.90922,4.2414 7.11556,9.7914 9.34741,12.33333 2.23184,2.54193 3.54575,4.57735 2.91977,4.52315 -0.62596,-0.0543 -6.83812,-2.90422 -13.80478,-6.33334 z"
         id="path385"
         transform="translate(-63.296624,-48.139829)" />
      <path
         style="fill:#d45500;stroke-width:1.33333"
         d="m 683.00723,295.28391 c -6.73996,-3.24269 -23.22568,-18.32067 -23.22568,-21.24241 0,-0.84251 0.81855,-2.65125 1.81899,-4.01944 1.75444,-2.39935 2.03165,-2.36299 7.81197,1.02451 10.09849,5.9181 19.05449,13.68803 23.48175,20.37195 2.32134,3.50459 4.22062,6.93416 4.22062,7.62127 0,1.73127 -6.0509,0.12027 -14.10765,-3.75588 z"
         id="path389"
         transform="translate(-63.296624,-48.139829)" />
      <path
         style="fill:#d45500;stroke-width:1.33333"
         d="m 699.18907,330.33332 -6.22069,-7.66666 h 5.10184 5.10185 l 2.09499,8.0412 c 1.15225,4.42265 1.65573,7.87265 1.11885,7.66666 -0.53688,-0.206 -3.77545,-3.82453 -7.19684,-8.0412 z"
         id="path383"
         transform="translate(-63.296624,-48.139829)" />
      <path
         style="fill:#d45500;stroke-width:1.33333"
         d="m 865.6711,415.27463 c -2.21892,-5.31062 -1.62017,-7.27464 2.21773,-7.27464 3.61337,0 5.97705,5.43872 3.98298,9.16468 -2.17111,4.05674 -3.94145,3.51713 -6.20071,-1.89004 z"
         id="path377"
         transform="translate(-63.296624,-48.139829)" />
    </g>
    <g
       id="layer5"
       inkscape:label="Eye">
      <path
         style="fill:#000000;stroke-width:1.33333"
         d="m 781.0762,391.37992 c 1.33478,-1.60829 0.2456,-3.49133 -6.16508,-10.65866 -7.64461,-8.54694 -10.27285,-10.83911 -19.98668,-17.4311 -7.48856,-5.08186 -14.62141,-4.50084 -26.71753,2.17636 -11.67752,6.44615 -12.53021,9.40255 -3.07681,10.66784 3.29162,0.44058 8.21552,1.79058 10.94196,3 3.38937,1.5035 8.68574,2.19896 16.74636,2.19896 h 11.78918 l 7.02918,6 c 3.86605,3.3 7.20672,6 7.42372,6 0.217,0 1.12406,-0.87903 2.0157,-1.9534 z"
         id="path367"
         transform="translate(-63.296624,-48.139829)" />
      <path
         style="fill:#ffff00;stroke-width:1.33333"
         d="m 742.68132,373.87986 c -2.40118,-1.68186 -2.70438,-2.50872 -1.46674,-4 1.6085,-1.93812 7.40906,-2.49634 11.12458,-1.07055 2.7981,1.07373 2.68171,4.05797 -0.22428,5.75055 -3.32924,1.9391 -5.96558,1.74906 -9.43356,-0.68 z"
         id="path369"
         transform="translate(-63.296624,-48.139829)" />
    </g>
    <g
       id="layer4"
       inkscape:label="Antlers">
      <path
         style="fill:#ffdd55;stroke-width:1.33333"
         d="m 618.27639,265.65762 c -4.67216,-4.95497 -17.5654,-19.53273 -28.65164,-32.39504 -24.71276,-28.67185 -32.32179,-35.652 -50.75672,-46.56181 -7.93089,-4.69351 -19.77099,-12.10475 -26.31129,-16.46943 -17.01278,-11.35349 -23.88858,-14.09508 -64.02287,-25.52786 -42.9844,-12.24468 -72.60765,-22.00005 -85.76445,-28.24349 -7.67331,-3.64131 -10.94975,-6.18111 -15.73351,-12.19618 -7.0938,-8.919688 -13.22504,-18.930479 -11.59423,-18.930479 0.62954,0 7.11354,4.534757 14.4089,10.077237 24.45285,18.577472 45.6584,26.120022 54.2643,19.301152 8.53415,-6.762 1.11139,-23.541436 -22.70957,-51.335877 -3.75095,-4.376618 -6.54725,-8.230127 -6.21403,-8.563354 1.35988,-1.35988 19.84658,12.755249 26.52503,20.252633 4.16553,4.676312 10.65489,14.681563 15.49631,23.89207 12.06784,22.958368 20.30001,29.683278 43.62708,35.639208 19.71802,5.03446 22.27688,3.75521 22.27224,-11.13466 -0.004,-14.54621 -7.33255,-28.621068 -23.84307,-45.795076 -3.70125,-3.85 -6.27615,-6.999999 -5.72199,-6.999999 2.21983,0 11.4697,5.444903 17.94463,10.563047 11.9458,9.442617 16.9698,17.585977 24.24212,39.293898 7.32069,21.85235 12.63531,32.13395 20.86327,40.36191 7.96774,7.96775 15.61376,11.59731 24.64288,11.69798 12.64516,0.14099 18.54177,-5.24685 18.54177,-16.94196 0,-8.62052 -3.30392,-18.49482 -11.92556,-35.64154 -4.24041,-8.43334 -8.16315,-16.83334 -8.71716,-18.66667 -0.99888,-3.305442 -0.97139,-3.299864 3.28675,0.66667 9.86333,9.18788 22.77012,31.2512 26.51949,45.33333 0.781,2.93333 2.32613,11.7982 3.43363,19.6997 3.51313,25.06462 6.5718,34.04018 16.3868,48.08643 10.73916,15.36881 18.05258,20.88053 27.7061,20.88053 21.13898,0 35.54239,-36.3726 28.77572,-72.66666 C 644.29027,158.2 643.71895,152.2 643.97772,150 l 0.4705,-4 3.79734,6.34013 c 6.10948,10.20052 8.86982,18.92236 8.86396,28.0075 -0.0107,16.52479 -4.92392,38.91463 -13.82169,62.9857 -1.89752,5.13333 -3.46269,11.06593 -3.47816,13.18354 -0.0183,2.50066 -2.01436,6.33418 -5.69479,10.93691 -3.11666,3.89769 -6.04398,7.11509 -6.50516,7.1498 -0.46117,0.0347 -4.66117,-3.99099 -9.33333,-8.94596 z"
         id="path393"
         transform="translate(-63.296624,-48.139829)" />
      <path
         style="fill:#ffdd55;stroke-width:1.33333"
         d="m 681.59739,333.66666 c -3.62123,-4.21667 -9.51705,-11.82251 -13.10183,-16.90188 -3.58477,-5.07936 -10.01192,-12.72936 -14.28256,-17 -4.27062,-4.27063 -7.74225,-8.21479 -7.71472,-8.76479 0.0275,-0.55 1.97924,-3.25213 4.33714,-6.00475 l 4.28709,-5.00473 8.61833,8.07464 c 4.93764,4.62615 12.64714,10.06579 18.05175,12.73689 10.37023,5.12526 17.6118,6.05968 46.65563,6.02035 17.54969,-0.0237 26.78121,-2.15836 41.18324,-9.52277 5.7841,-2.95768 10.83297,-5.0612 11.21968,-4.67448 1.4543,1.4543 -10.23362,10.95557 -19.4065,15.77578 -5.24066,2.75388 -14.20876,6.22351 -19.92912,7.71027 -9.21221,2.39431 -12.77113,2.6004 -31.14637,1.80363 -18.03983,-0.78223 -21.02428,-0.62102 -22.88131,1.23602 -3.0058,3.00579 -1.7188,6.29403 5.07191,12.95862 6.52696,6.40572 6.95911,7.41521 3.55513,8.30476 -6.21477,1.62409 -8.06752,0.76296 -14.51749,-6.74756 z"
         id="path381"
         transform="translate(-63.296624,-48.139829)" />
      <path
         style="fill:#ffdd55;stroke-width:1.33333"
         d="m 660.42123,345.48102 c -6.45473,-6.13138 -13.13561,-10.89728 -20.09255,-14.33334 l -10.42244,-5.14769 -20.06234,-0.0604 c -19.2442,-0.0579 -20.55171,-0.23803 -32.06235,-4.41671 -26.03403,-9.45106 -37.86291,-12.28345 -56.66667,-13.56864 -11.04048,-0.75458 -24.95952,-2.80098 -36,-5.29276 -9.9,-2.23438 -36.6,-6.75989 -59.33333,-10.05668 -46.69509,-6.77173 -70.40959,-11.02878 -92.66667,-16.63484 -19.60132,-4.93713 -26.2532,-7.26571 -48.93857,-17.13165 -10.20361,-4.43757 -27.08152,-11.01822 -37.50645,-14.62365 -23.88415,-8.26027 -37.53224,-16.23668 -51.69904,-30.21469 -9.54275,-9.41559 -16.35651,-18.61055 -14.88295,-20.0841 0.27661,-0.27662 6.57872,4.42914 14.00465,10.45724 22.24964,18.06144 37.16571,25.72244 52.95208,27.1966 9.9099,0.9254 15.5195,-0.80356 18.07015,-5.56949 4.87475,-9.10855 -4.41463,-32.25633 -19.47077,-48.51835 -4.87983,-5.27066 -8.53536,-9.92008 -8.12343,-10.33202 0.41195,-0.41195 2.87831,-0.0463 5.48081,0.81265 9.59088,3.16528 16.29151,11.71883 45.68216,58.31459 13.90443,22.044 21.97414,28.52732 44.43136,35.69686 13.87122,4.42843 24.20852,5.04426 27.61439,1.64507 6.06217,-6.05033 1.30837,-22.03105 -11.51924,-38.72388 -3.84813,-5.00765 -6.66275,-9.43868 -6.25469,-9.84675 1.64108,-1.64108 19.63917,18.44564 27.73518,30.95378 9.35834,14.4584 15.06939,20.25574 24.80692,25.18177 18.20675,9.21046 38.0461,11.38385 50.59279,5.54242 9.84403,-4.58311 12.69015,-9.50998 11.97311,-20.72639 -0.68696,-10.7461 -4.77906,-19.24692 -16.52723,-34.33334 l -8.56597,-11 h 4.13858 c 12.0189,0 22.6393,13.58596 33.25474,42.54055 7.07841,19.30704 9.65145,24.29684 14.73436,28.57382 11.29836,9.50694 34.6312,7.80296 47.43096,-3.46384 10.75261,-9.46482 15.85582,-23.65155 18.00852,-50.06303 0.6892,-8.45576 1.60069,-15.72171 2.02553,-16.14655 0.42484,-0.42484 2.45784,1.11385 4.51779,3.41933 5.0543,5.65675 6.05101,13.98806 3.40633,28.47306 -4.57211,25.04166 -5.20376,31.82514 -3.6074,38.74094 3.20781,13.897 10.37487,18.91039 26.87921,18.80215 27.73836,-0.18192 54.28183,-21.36628 71.26474,-56.87643 2.45504,-5.13333 5.23108,-12.03333 6.16898,-15.33333 2.54671,-8.96056 3.59122,-9.11497 4.64427,-0.68657 2.66595,21.33754 -5.60223,38.25213 -33.90119,69.35323 -11.59525,12.7434 -15.43829,18.46734 -14.33294,21.34784 0.37437,0.9756 5.88189,3.36028 12.23893,5.29931 16.46679,5.02268 43.98057,16.94948 49.85653,21.61204 0.54087,0.42917 -7.95544,8.23264 -9.09497,8.35329 -0.28148,0.0299 -4.86333,-4.07934 -10.18188,-9.13145 z"
         id="path379"
         transform="translate(-63.296624,-48.139829)" />
    </g>
  </g>
</svg>
